# xmcd
#
# Track frame offsets:
# 150
# 21966
# 41950
# 61887
# 81984
# 98778
# 116324
# 134097
# 154849
# 176350
#
# Disc length: 2642 seconds
#
# Revision: 0
# Processed by: cddbd v1.5.1PL2 Copyright (c) Steve Scherf et al.
# Submitted via: Audion 3.0.2 (http://www.panic.com/audion/)
#
DISCID=830a500a
DTITLE=Whitney Houston - Whitney Greatest Hits
DYEAR=1900
DGENRE=
TTITLE0=Greatest Love of All
TTITLE1=Run to you
TTITLE2=I will always love you
TTITLE3=All at once
TTITLE4=You light up my life
TTITLE5=I believe in you and me
TTITLE6=All the man that I need
TTITLE7=Didn´t we almost have it all
TTITLE8=One moment in time
TTITLE9=I wonna dance with somebody
EXTD=
EXTT0=
EXTT1=
EXTT2=
EXTT3=
EXTT4=
EXTT5=
EXTT6=
EXTT7=
EXTT8=
EXTT9=
PLAYORDER=
